<svg width="26" height="26" viewBox="0 0 26 26" fill="none" xmlns="http://www.w3.org/2000/svg">
<path fill-rule="evenodd" clip-rule="evenodd" d="M22.75 5.41669H18.9964L17.1514 2.6491C16.9505 2.34771 16.6122 2.16669 16.25 2.16669H9.75C9.38778 2.16669 9.04953 2.34771 8.84861 2.6491L7.00355 5.41669H3.25C1.45507 5.41669 0 6.87176 0 8.66669V20.5834C0 22.3783 1.45507 23.8334 3.25 23.8334H22.75C24.5449 23.8334 26 22.3783 26 20.5834V8.66669C26 6.87176 24.5449 5.41669 22.75 5.41669ZM8.48472 7.10087L10.3298 4.33328H15.6702L17.5153 7.10087C17.7162 7.40225 18.0545 7.58328 18.4167 7.58328H22.75C23.3483 7.58328 23.8333 8.0683 23.8333 8.66661V20.5833C23.8333 21.1816 23.3483 21.6666 22.75 21.6666H3.25C2.65169 21.6666 2.16667 21.1816 2.16667 20.5833V8.66661C2.16667 8.0683 2.65169 7.58328 3.25 7.58328H7.58333C7.94555 7.58328 8.2838 7.40225 8.48472 7.10087ZM13 19.4999C10.0085 19.4999 7.58333 17.0748 7.58333 14.0832C7.58333 11.0917 10.0085 8.66658 13 8.66658C15.9915 8.66658 18.4167 11.0917 18.4167 14.0832C18.4167 17.0748 15.9915 19.4999 13 19.4999ZM16.25 14.0833C16.25 15.8782 14.7949 17.3333 13 17.3333C11.2051 17.3333 9.75 15.8782 9.75 14.0833C9.75 12.2884 11.2051 10.8333 13 10.8333C14.7949 10.8333 16.25 12.2884 16.25 14.0833Z" fill="#222222"/>
<mask id="mask0_402_4657" style="mask-type:luminance" maskUnits="userSpaceOnUse" x="0" y="2" width="26" height="22">
<path fill-rule="evenodd" clip-rule="evenodd" d="M22.75 5.41669H18.9964L17.1514 2.6491C16.9505 2.34771 16.6122 2.16669 16.25 2.16669H9.75C9.38778 2.16669 9.04953 2.34771 8.84861 2.6491L7.00355 5.41669H3.25C1.45507 5.41669 0 6.87176 0 8.66669V20.5834C0 22.3783 1.45507 23.8334 3.25 23.8334H22.75C24.5449 23.8334 26 22.3783 26 20.5834V8.66669C26 6.87176 24.5449 5.41669 22.75 5.41669ZM8.48472 7.10087L10.3298 4.33328H15.6702L17.5153 7.10087C17.7162 7.40225 18.0545 7.58328 18.4167 7.58328H22.75C23.3483 7.58328 23.8333 8.0683 23.8333 8.66661V20.5833C23.8333 21.1816 23.3483 21.6666 22.75 21.6666H3.25C2.65169 21.6666 2.16667 21.1816 2.16667 20.5833V8.66661C2.16667 8.0683 2.65169 7.58328 3.25 7.58328H7.58333C7.94555 7.58328 8.2838 7.40225 8.48472 7.10087ZM13 19.4999C10.0085 19.4999 7.58333 17.0748 7.58333 14.0832C7.58333 11.0917 10.0085 8.66658 13 8.66658C15.9915 8.66658 18.4167 11.0917 18.4167 14.0832C18.4167 17.0748 15.9915 19.4999 13 19.4999ZM16.25 14.0833C16.25 15.8782 14.7949 17.3333 13 17.3333C11.2051 17.3333 9.75 15.8782 9.75 14.0833C9.75 12.2884 11.2051 10.8333 13 10.8333C14.7949 10.8333 16.25 12.2884 16.25 14.0833Z" fill="white"/>
</mask>
<g mask="url(#mask0_402_4657)">
<rect width="26" height="26" fill="#222222"/>
</g>
</svg>
