<svg width="30" height="30" viewBox="0 0 30 30" fill="none" xmlns="http://www.w3.org/2000/svg">
<path d="M6.48005 25.705L6.93404 24.814L6.93404 24.814L6.48005 25.705ZM4.29497 23.52L3.40396 23.9739L3.40396 23.9739L4.29497 23.52ZM23.52 4.29497L23.9739 3.40396L23.9739 3.40396L23.52 4.29497ZM25.705 6.48005L24.814 6.93404L24.814 6.93404L25.705 6.48005ZM6.48005 4.29497L6.93404 5.18597L6.93404 5.18597L6.48005 4.29497ZM4.29497 6.48005L5.18597 6.93404L5.18597 6.93404L4.29497 6.48005ZM25.25 13.75C25.25 14.3023 25.6977 14.75 26.25 14.75C26.8023 14.75 27.25 14.3023 27.25 13.75H25.25ZM13.75 27.25C14.3023 27.25 14.75 26.8023 14.75 26.25C14.75 25.6977 14.3023 25.25 13.75 25.25V27.25ZM10 9C9.44772 9 9 9.44772 9 10C9 10.5523 9.44772 11 10 11V9ZM20 11C20.5523 11 21 10.5523 21 10C21 9.44772 20.5523 9 20 9V11ZM10 14C9.44772 14 9 14.4477 9 15C9 15.5523 9.44772 16 10 16V14ZM20 16C20.5523 16 21 15.5523 21 15C21 14.4477 20.5523 14 20 14V16ZM10 19C9.44772 19 9 19.4477 9 20C9 20.5523 9.44772 21 10 21V19ZM15 21C15.5523 21 16 20.5523 16 20C16 19.4477 15.5523 19 15 19V21ZM17.8165 26.8707L18.7652 27.187L18.7652 27.187L17.8165 26.8707ZM18.395 25.1353L17.4463 24.819L17.4463 24.819L18.395 25.1353ZM18.9919 24.1694L19.699 24.8765L19.699 24.8765L18.9919 24.1694ZM24.7567 18.4046L24.0496 17.6975L24.0496 17.6975L24.7567 18.4046ZM27.8454 21.4933L28.5525 22.2004L28.5525 22.2004L27.8454 21.4933ZM22.0806 27.2581L21.3735 26.551L21.3735 26.551L22.0806 27.2581ZM21.1147 27.855L21.431 28.8037L21.431 28.8037L21.1147 27.855ZM19.3793 28.4335L19.6955 29.3822L19.6955 29.3822L19.3793 28.4335ZM21.7639 27.5536L22.3662 28.3519L22.3662 28.3519L21.7639 27.5536ZM21.5207 27.704L21.076 26.8083L21.076 26.8083L21.5207 27.704ZM27.8454 18.4046L27.1383 19.1117L27.1383 19.1117L27.8454 18.4046ZM28.5894 19.2633L29.4854 18.8192L29.4854 18.8192L28.5894 19.2633ZM28.5894 20.6347L29.4854 21.0787L29.4854 21.0787L28.5894 20.6347ZM25.6153 17.6606L26.0594 18.5566L26.0594 18.5566L25.6153 17.6606ZM26.9867 17.6606L26.5427 18.5566L26.5427 18.5566L26.9867 17.6606ZM18.546 24.7293L19.4417 25.174L19.4417 25.174L18.546 24.7293ZM18.6964 24.4861L17.8981 23.8838L17.8981 23.8838L18.6964 24.4861ZM17.5287 28.2533L18.4707 27.9174L18.4707 27.9174L17.5287 28.2533ZM17.9967 28.7213L17.6608 29.6632L17.6608 29.6632L17.9967 28.7213ZM11.75 4.75H18.25V2.75H11.75V4.75ZM4.75 18.25V11.75H2.75V18.25H4.75ZM11.75 25.25C10.3334 25.25 9.33104 25.2492 8.54744 25.1852C7.77552 25.1221 7.30435 25.0027 6.93404 24.814L6.02606 26.596C6.7253 26.9523 7.48898 27.1054 8.38458 27.1786C9.26851 27.2508 10.3664 27.25 11.75 27.25V25.25ZM2.75 18.25C2.75 19.6336 2.74922 20.7315 2.82144 21.6154C2.89462 22.511 3.04768 23.2747 3.40396 23.9739L5.18597 23.066C4.99729 22.6957 4.87787 22.2245 4.8148 21.4526C4.75078 20.669 4.75 19.6666 4.75 18.25H2.75ZM6.93404 24.814C6.18139 24.4305 5.56947 23.8186 5.18597 23.066L3.40396 23.9739C3.9792 25.1029 4.89708 26.0208 6.02606 26.596L6.93404 24.814ZM18.25 4.75C19.6666 4.75 20.669 4.75078 21.4526 4.8148C22.2245 4.87787 22.6957 4.99729 23.066 5.18597L23.9739 3.40396C23.2747 3.04768 22.511 2.89462 21.6154 2.82144C20.7315 2.74922 19.6336 2.75 18.25 2.75V4.75ZM27.25 11.75C27.25 10.3664 27.2508 9.26851 27.1786 8.38458C27.1054 7.48898 26.9523 6.7253 26.596 6.02606L24.814 6.93404C25.0027 7.30435 25.1221 7.77552 25.1852 8.54744C25.2492 9.33104 25.25 10.3334 25.25 11.75H27.25ZM23.066 5.18597C23.8186 5.56947 24.4305 6.18139 24.814 6.93404L26.596 6.02606C26.0208 4.89708 25.1029 3.9792 23.9739 3.40396L23.066 5.18597ZM11.75 2.75C10.3664 2.75 9.26851 2.74922 8.38458 2.82144C7.48898 2.89462 6.7253 3.04768 6.02606 3.40396L6.93404 5.18597C7.30435 4.99729 7.77552 4.87787 8.54744 4.8148C9.33104 4.75078 10.3334 4.75 11.75 4.75V2.75ZM4.75 11.75C4.75 10.3334 4.75078 9.33104 4.8148 8.54744C4.87787 7.77552 4.99729 7.30435 5.18597 6.93404L3.40396 6.02606C3.04768 6.7253 2.89462 7.48898 2.82144 8.38458C2.74922 9.26851 2.75 10.3664 2.75 11.75H4.75ZM6.02606 3.40396C4.89708 3.9792 3.9792 4.89708 3.40396 6.02606L5.18597 6.93404C5.56947 6.18139 6.18139 5.56947 6.93404 5.18597L6.02606 3.40396ZM25.25 11.75V13.75H27.25V11.75H25.25ZM11.75 27.25H13.75V25.25H11.75V27.25ZM10 11H20V9H10V11ZM10 16H20V14H10V16ZM10 21H15V19H10V21ZM18.7652 27.187L19.3437 25.4515L17.4463 24.819L16.8678 26.5545L18.7652 27.187ZM19.699 24.8765L25.4638 19.1117L24.0496 17.6975L18.2848 23.4623L19.699 24.8765ZM27.1383 20.7862L21.3735 26.551L22.7877 27.9652L28.5525 22.2004L27.1383 20.7862ZM20.7985 26.9063L19.063 27.4848L19.6955 29.3822L21.431 28.8037L20.7985 26.9063ZM21.3735 26.551C21.2008 26.7237 21.1793 26.742 21.1617 26.7553L22.3662 28.3519C22.5204 28.2356 22.6527 28.1001 22.7877 27.9652L21.3735 26.551ZM21.431 28.8037C21.612 28.7433 21.7924 28.6855 21.9654 28.5996L21.076 26.8083C21.0563 26.8181 21.0302 26.8291 20.7985 26.9063L21.431 28.8037ZM21.1617 26.7553C21.1348 26.7756 21.1061 26.7933 21.076 26.8083L21.9654 28.5996C22.1063 28.5296 22.2405 28.4467 22.3662 28.3519L21.1617 26.7553ZM27.1383 19.1117C27.6164 19.5899 27.6721 19.6643 27.6934 19.7073L29.4854 18.8192C29.2817 18.408 28.9164 18.0615 28.5525 17.6975L27.1383 19.1117ZM28.5525 22.2004C28.9164 21.8364 29.2817 21.4899 29.4854 21.0787L27.6934 20.1906C27.6721 20.2336 27.6164 20.308 27.1383 20.7862L28.5525 22.2004ZM27.6934 19.7073C27.7689 19.8596 27.7689 20.0384 27.6934 20.1906L29.4854 21.0787C29.8382 20.3668 29.8382 19.5311 29.4854 18.8192L27.6934 19.7073ZM25.4638 19.1117C25.9419 18.6336 26.0164 18.5779 26.0594 18.5566L25.1713 16.7646C24.7601 16.9683 24.4135 17.3336 24.0496 17.6975L25.4638 19.1117ZM28.5525 17.6975C28.1885 17.3336 27.842 16.9683 27.4308 16.7646L26.5427 18.5566C26.5857 18.5779 26.6601 18.6336 27.1383 19.1117L28.5525 17.6975ZM26.0594 18.5566C26.2117 18.4811 26.3904 18.4811 26.5427 18.5566L27.4308 16.7646C26.7189 16.4118 25.8832 16.4118 25.1713 16.7646L26.0594 18.5566ZM19.3437 25.4515C19.4209 25.2198 19.4319 25.1937 19.4417 25.174L17.6504 24.2846C17.5645 24.4576 17.5067 24.638 17.4463 24.819L19.3437 25.4515ZM18.2848 23.4623C18.1499 23.5973 18.0144 23.7296 17.8981 23.8838L19.4947 25.0883C19.508 25.0707 19.5263 25.0492 19.699 24.8765L18.2848 23.4623ZM19.4417 25.174C19.4567 25.1439 19.4744 25.1152 19.4947 25.0883L17.8981 23.8838C17.8033 24.0095 17.7204 24.1437 17.6504 24.2846L19.4417 25.174ZM16.8678 26.5545C16.7484 26.9128 16.6359 27.2471 16.5713 27.5221C16.5102 27.7823 16.4407 28.1793 16.5868 28.5892L18.4707 27.9174C18.5274 28.0765 18.476 28.1594 18.5183 27.9796C18.557 27.8147 18.6332 27.5831 18.7652 27.187L16.8678 26.5545ZM19.063 27.4848C18.6669 27.6168 18.4353 27.693 18.2704 27.7317C18.0906 27.774 18.1735 27.7226 18.3326 27.7793L17.6608 29.6632C18.0707 29.8093 18.4677 29.7398 18.7279 29.6787C19.0029 29.6141 19.3372 29.5016 19.6955 29.3822L19.063 27.4848ZM16.5868 28.5892C16.7655 29.0902 17.1598 29.4845 17.6608 29.6632L18.3326 27.7793C18.397 27.8023 18.4477 27.853 18.4707 27.9174L16.5868 28.5892Z" fill="#222222"/>
</svg>
