<svg width="30" height="30" viewBox="0 0 30 30" fill="none" xmlns="http://www.w3.org/2000/svg">
<path d="M5 8.75C5 8.05964 5.55964 7.5 6.25 7.5H23.75C24.4404 7.5 25 8.05964 25 8.75C25 9.44036 24.4404 10 23.75 10H6.25C5.55964 10 5 9.44036 5 8.75ZM5 15C5 14.3096 5.55964 13.75 6.25 13.75H23.75C24.4404 13.75 25 14.3096 25 15C25 15.6904 24.4404 16.25 23.75 16.25H6.25C5.55964 16.25 5 15.6904 5 15ZM5 21.25C5 20.5596 5.55964 20 6.25 20H23.75C24.4404 20 25 20.5596 25 21.25C25 21.9404 24.4404 22.5 23.75 22.5H6.25C5.55964 22.5 5 21.9404 5 21.25Z" fill="#222222"/>
</svg>
