<svg width="18" height="21" viewBox="0 0 18 21" fill="none" xmlns="http://www.w3.org/2000/svg">
<path d="M5 7C4.44772 7 4 7.44772 4 8C4 8.55228 4.44772 9 5 9V7ZM10 9C10.5523 9 11 8.55228 11 8C11 7.44772 10.5523 7 10 7V9ZM5 11C4.44772 11 4 11.4477 4 12C4 12.5523 4.44772 13 5 13V11ZM10 13C10.5523 13 11 12.5523 11 12C11 11.4477 10.5523 11 10 11V13ZM5 15C4.44772 15 4 15.4477 4 16C4 16.5523 4.44772 17 5 17V15ZM10 17C10.5523 17 11 16.5523 11 16C11 15.4477 10.5523 15 10 15V17ZM2.09202 19.782L2.54601 18.891L2.09202 19.782ZM1.21799 18.908L2.10899 18.454L1.21799 18.908ZM13.782 18.908L12.891 18.454L13.782 18.908ZM12.908 19.782L12.454 18.891L12.908 19.782ZM12.908 4.21799L12.454 5.10899L12.908 4.21799ZM13.782 5.09202L12.891 5.54601L13.782 5.09202ZM2.09202 4.21799L2.54601 5.10899L2.09202 4.21799ZM1.21799 5.09202L2.10899 5.54601L1.21799 5.09202ZM5.00005 0C4.44776 0 4.00005 0.447715 4.00005 1C4.00005 1.55228 4.44776 2 5.00005 2V0ZM16 18C16 18.5523 16.4477 19 17 19C17.5523 19 18 18.5523 18 18H16ZM15.908 1.21799L16.362 0.326981L15.908 1.21799ZM16.782 2.09202L15.891 2.54601V2.54601L16.782 2.09202ZM5 9H10V7H5V9ZM5 13H10V11H5V13ZM5 17H10V15H5V17ZM4.2 5H10.8V3H4.2V5ZM13 7.2V16.8H15V7.2H13ZM10.8 19H4.2V21H10.8V19ZM2 16.8V7.2H0V16.8H2ZM4.2 19C3.62345 19 3.25117 18.9992 2.96784 18.9761C2.69617 18.9539 2.59545 18.9162 2.54601 18.891L1.63803 20.673C2.01641 20.8658 2.40963 20.9371 2.80497 20.9694C3.18864 21.0008 3.65645 21 4.2 21V19ZM0 16.8C0 17.3436 -0.000777721 17.8114 0.0305694 18.195C0.0628704 18.5904 0.134186 18.9836 0.32698 19.362L2.10899 18.454C2.0838 18.4045 2.04612 18.3038 2.02393 18.0322C2.00078 17.7488 2 17.3766 2 16.8H0ZM2.54601 18.891C2.35785 18.7951 2.20487 18.6422 2.10899 18.454L0.32698 19.362C0.614601 19.9265 1.07354 20.3854 1.63803 20.673L2.54601 18.891ZM13 16.8C13 17.3766 12.9992 17.7488 12.9761 18.0322C12.9539 18.3038 12.9162 18.4045 12.891 18.454L14.673 19.362C14.8658 18.9836 14.9371 18.5904 14.9694 18.195C15.0008 17.8114 15 17.3436 15 16.8H13ZM10.8 21C11.3436 21 11.8114 21.0008 12.195 20.9694C12.5904 20.9371 12.9836 20.8658 13.362 20.673L12.454 18.891C12.4045 18.9162 12.3038 18.9539 12.0322 18.9761C11.7488 18.9992 11.3766 19 10.8 19V21ZM12.891 18.454C12.7951 18.6422 12.6422 18.7951 12.454 18.891L13.362 20.673C13.9265 20.3854 14.3854 19.9265 14.673 19.362L12.891 18.454ZM10.8 5C11.3766 5 11.7488 5.00078 12.0322 5.02393C12.3038 5.04612 12.4045 5.0838 12.454 5.10899L13.362 3.32698C12.9836 3.13419 12.5904 3.06287 12.195 3.03057C11.8114 2.99922 11.3436 3 10.8 3V5ZM15 7.2C15 6.65645 15.0008 6.18864 14.9694 5.80497C14.9371 5.40963 14.8658 5.01641 14.673 4.63803L12.891 5.54601C12.9162 5.59545 12.9539 5.69617 12.9761 5.96784C12.9992 6.25117 13 6.62345 13 7.2H15ZM12.454 5.10899C12.6422 5.20487 12.7951 5.35785 12.891 5.54601L14.673 4.63803C14.3854 4.07354 13.9265 3.6146 13.362 3.32698L12.454 5.10899ZM4.2 3C3.65645 3 3.18864 2.99922 2.80497 3.03057C2.40963 3.06287 2.01641 3.13419 1.63803 3.32698L2.54601 5.10899C2.59545 5.0838 2.69617 5.04612 2.96784 5.02393C3.25117 5.00078 3.62345 5 4.2 5V3ZM2 7.2C2 6.62345 2.00078 6.25117 2.02393 5.96784C2.04612 5.69617 2.0838 5.59545 2.10899 5.54601L0.32698 4.63803C0.134186 5.01641 0.0628704 5.40963 0.0305694 5.80497C-0.000777721 6.18864 0 6.65645 0 7.2H2ZM1.63803 3.32698C1.07354 3.6146 0.614601 4.07354 0.32698 4.63803L2.10899 5.54601C2.20487 5.35785 2.35785 5.20487 2.54601 5.10899L1.63803 3.32698ZM5.00005 2H13.8V0H5.00005V2ZM16 4.2V18H18V4.2H16ZM13.8 2C14.3766 2 14.7488 2.00078 15.0322 2.02393C15.3038 2.04612 15.4045 2.0838 15.454 2.10899L16.362 0.326981C15.9836 0.134186 15.5904 0.0628704 15.195 0.0305694C14.8114 -0.000777721 14.3436 0 13.8 0V2ZM18 4.2C18 3.65645 18.0008 3.18864 17.9694 2.80497C17.9371 2.40963 17.8658 2.01641 17.673 1.63803L15.891 2.54601C15.9162 2.59545 15.9539 2.69617 15.9761 2.96784C15.9992 3.25117 16 3.62345 16 4.2H18ZM15.454 2.10899C15.6422 2.20487 15.7951 2.35785 15.891 2.54601L17.673 1.63803C17.3854 1.07354 16.9265 0.6146 16.362 0.326981L15.454 2.10899Z" fill="#111111"/>
</svg>
