<svg width="30" height="30" viewBox="0 0 30 30" fill="none" xmlns="http://www.w3.org/2000/svg">
<path d="M17.5 6.25H23.75M17.5 11.25H23.75M17.5 18.75H23.75M17.5 23.75H23.75M8.75 12.5C7.58515 12.5 7.00272 12.5 6.54329 12.3097C5.93072 12.056 5.44404 11.5693 5.1903 10.9567C5 10.4973 5 9.91485 5 8.75C5 7.58515 5 7.00272 5.1903 6.54329C5.44404 5.93072 5.93072 5.44404 6.54329 5.1903C7.00272 5 7.58515 5 8.75 5C9.91485 5 10.4973 5 10.9567 5.1903C11.5693 5.44404 12.056 5.93072 12.3097 6.54329C12.5 7.00272 12.5 7.58515 12.5 8.75C12.5 9.91485 12.5 10.4973 12.3097 10.9567C12.056 11.5693 11.5693 12.056 10.9567 12.3097C10.4973 12.5 9.91485 12.5 8.75 12.5ZM8.75 25C7.58515 25 7.00272 25 6.54329 24.8097C5.93072 24.556 5.44404 24.0693 5.1903 23.4567C5 22.9973 5 22.4149 5 21.25C5 20.0851 5 19.5027 5.1903 19.0433C5.44404 18.4307 5.93072 17.944 6.54329 17.6903C7.00272 17.5 7.58515 17.5 8.75 17.5C9.91485 17.5 10.4973 17.5 10.9567 17.6903C11.5693 17.944 12.056 18.4307 12.3097 19.0433C12.5 19.5027 12.5 20.0851 12.5 21.25C12.5 22.4149 12.5 22.9973 12.3097 23.4567C12.056 24.0693 11.5693 24.556 10.9567 24.8097C10.4973 25 9.91485 25 8.75 25Z" stroke="#222222" stroke-width="2" stroke-linecap="round"/>
</svg>
