<svg width="40" height="40" viewBox="0 0 40 40" fill="none" xmlns="http://www.w3.org/2000/svg">
<circle cx="19.75" cy="19.75" r="19.0642" stroke="#25B444" stroke-width="1.37153"/>
<path fill-rule="evenodd" clip-rule="evenodd" d="M16.4251 36.7116C15.7569 32.8386 15.5961 28.4099 16.7096 24.2475L16.7018 24.2454C17.0426 23.6001 17.4085 22.9506 17.8008 22.2976C19.0281 20.2548 20.3457 18.4418 21.7146 16.8356C20.8331 20.0367 20.5861 23.3321 20.6707 26.312C20.7809 30.1908 21.4546 33.5796 22.0623 35.6049C21.8388 36.0585 21.62 36.5079 21.4058 36.953C21.9599 36.9003 22.5064 36.8215 23.044 36.7177C23.1744 36.4509 23.3063 36.1825 23.4399 35.9127C24.3398 35.9084 25.2721 35.8701 26.224 35.7778C27.5655 35.2354 28.8234 34.5295 29.9729 33.6848C27.9996 34.2611 26.0169 34.4818 24.1325 34.5306C25.5368 31.7605 27.108 28.8555 28.8456 25.8851C31.2392 25.8115 33.8248 25.4639 36.3741 24.4872C36.527 23.9497 36.6545 23.4015 36.7553 22.844C34.4078 23.8978 31.9869 24.3346 29.6805 24.4746C31.6554 21.1767 33.8328 17.8126 36.212 14.476C35.8837 13.4507 35.4624 12.467 34.9578 11.5349C34.8839 12.4873 34.8957 13.3413 34.9361 13.8893C34.9365 13.8936 34.9368 13.8978 34.9372 13.902C32.6209 17.1637 30.4956 20.4491 28.5619 23.673C28.2319 20.0312 28.4726 15.3187 30.6914 9.21968C31.3306 8.84118 31.9635 8.49514 32.5865 8.17943C32.2659 7.82396 31.9307 7.48187 31.5819 7.15411C26.5615 9.77883 21.0229 14.2715 16.6252 21.5912C13.7894 26.3111 12.2812 30.8692 11.6309 35.0089C12.052 35.2335 12.4836 35.4411 12.9246 35.6309C13.2254 33.5424 13.7533 31.3341 14.5774 29.043C14.4305 31.5722 14.6159 34.0656 14.9777 36.3638C15.4521 36.4998 15.9349 36.6161 16.4251 36.7116ZM22.0417 26.273C21.9336 22.4682 22.388 18.2081 24.0179 14.3647C25.6053 12.8093 27.2302 11.4986 28.8378 10.4003C26.7399 16.9431 26.867 21.8921 27.4131 25.6192C25.7926 28.4087 24.3182 31.1383 22.99 33.7512C22.5399 31.8288 22.1248 29.1991 22.0417 26.273Z" fill="url(#paint0_linear_402_4652)"/>
<path fill-rule="evenodd" clip-rule="evenodd" d="M21.734 2.58137C21.0831 2.50698 20.4211 2.46875 19.7503 2.46875C19.3281 2.46875 18.9095 2.48388 18.495 2.51364L20.4291 3.12441L21.5811 4.67707L20.7465 5.88262L15.7998 7.79533C15.7024 7.83299 15.6149 7.89241 15.5439 7.96903L13.8295 9.82059C13.6966 9.9642 13.6313 10.1578 13.6501 10.3526L13.8527 12.4455V13.1667H13.6335L13.008 12.0721C12.8575 11.8087 12.5517 11.6755 12.2563 11.7447L9.0332 12.499C8.77433 12.5596 8.57381 12.7643 8.51864 13.0244L8.03861 15.2874C7.96414 15.6385 8.17292 15.9876 8.51743 16.0881L9.79328 16.4602L10.1731 17.871C10.2274 18.0726 10.3705 18.2384 10.5619 18.3217L12.0446 18.9663L13.8864 20.545C14.0107 20.6516 14.169 20.7101 14.3327 20.7101H15.4398C15.722 20.2414 16.0089 19.7843 16.3 19.3386H14.5864L12.8589 17.8579C12.807 17.8134 12.7487 17.7769 12.686 17.7496L11.4116 17.1956L11.0175 15.7315C10.9552 15.5004 10.777 15.3185 10.5473 15.2514L9.51232 14.9496L9.76992 13.7352L12.0709 13.1966L12.6401 14.1927C12.7622 14.4064 12.9894 14.5382 13.2355 14.5382H14.5384C14.9172 14.5382 15.2242 14.2312 15.2242 13.8525V12.4124C15.2242 12.3903 15.2231 12.3683 15.221 12.3463L15.0449 10.5267L16.4425 9.01732L21.4377 7.08584C21.5657 7.03632 21.676 6.94948 21.7542 6.83657L22.9886 5.05359C23.1558 4.81197 23.1506 4.49064 22.9755 4.25463L21.734 2.58137ZM3.69727 13.3389C3.92629 12.766 4.18511 12.2081 4.47179 11.6673L4.64774 11.5852C4.81346 11.5079 5.00321 11.4999 5.17481 11.5632L6.47777 12.0432C6.74736 12.1425 6.92646 12.3994 6.92646 12.6867V16.3623L7.46323 18.241L9.97001 18.5908C10.1107 18.6105 10.2418 18.6733 10.3452 18.7706L12.4788 20.7787H14.8127C14.9481 20.7787 15.0805 20.8188 15.1931 20.8939L15.291 20.9591C15.0543 21.3583 14.8271 21.7562 14.6091 22.1529L14.6051 22.1502H12.2068C12.0322 22.1502 11.8641 22.0836 11.7368 21.9638L9.56423 19.919L6.83169 19.5377C6.56296 19.5002 6.34162 19.3078 6.26708 19.0469L5.58131 16.6468C5.56381 16.5855 5.55493 16.5221 5.55493 16.4584V13.1649L4.9688 12.9489L4.1991 13.3081C4.04158 13.3816 3.86222 13.3925 3.69727 13.3389ZM8.09055 32.5053C7.69543 32.1439 7.31715 31.7644 6.95704 31.3681L7.78432 31.1553C7.84011 31.141 7.89749 31.1337 7.9551 31.1337H9.60094C9.89957 31.1337 10.1639 31.327 10.2544 31.6116L10.6537 32.8664C10.5675 33.3031 10.4911 33.7357 10.4239 34.1638C10.4584 34.1822 10.493 34.2005 10.5277 34.2187L10.4899 34.3433C10.0836 34.0849 9.68877 33.81 9.30642 33.5195L9.36291 33.3331L9.09949 32.5053H8.09055ZM29.4425 5.44049C29.0619 5.18222 28.6705 4.93874 28.2691 4.71086L28.0432 5.19738C28.0012 5.28786 27.9794 5.38641 27.9794 5.48616V7.20057C27.9794 7.3489 28.0272 7.48938 28.1108 7.60423C28.5701 7.31811 29.0273 7.04807 29.481 6.79341L29.3509 6.74018V5.63759L29.4425 5.44049Z" fill="#25B444"/>
<defs>
<linearGradient id="paint0_linear_402_4652" x1="58.215" y1="-21.0004" x2="20.8603" y2="39.6545" gradientUnits="userSpaceOnUse">
<stop stop-color="white"/>
<stop offset="1" stop-color="#25B444"/>
</linearGradient>
</defs>
</svg>
