<svg width="26" height="26" viewBox="0 0 26 26" fill="none" xmlns="http://www.w3.org/2000/svg">
<path d="M10.8337 4.33335C7.24381 4.33335 4.33366 7.2435 4.33366 10.8334C4.33366 14.4232 7.24381 17.3334 10.8337 17.3334C14.4235 17.3334 17.3337 14.4232 17.3337 10.8334C17.3337 7.2435 14.4235 4.33335 10.8337 4.33335ZM2.16699 10.8334C2.16699 6.04689 6.04719 2.16669 10.8337 2.16669C15.6201 2.16669 19.5003 6.04689 19.5003 10.8334C19.5003 12.8361 18.821 14.6802 17.6802 16.1478L23.5164 21.984C23.9394 22.4071 23.9394 23.093 23.5164 23.5161C23.0933 23.9391 22.4074 23.9391 21.9843 23.5161L16.1481 17.6799C14.6805 18.8207 12.8364 19.5 10.8337 19.5C6.04719 19.5 2.16699 15.6198 2.16699 10.8334Z" fill="#222222"/>
</svg>
