<svg width="28" height="28" viewBox="0 0 28 28" fill="none" xmlns="http://www.w3.org/2000/svg">
<path d="M18.2933 0C26.1333 0 28 1.86667 28 9.70667V18.2933C28 26.1333 26.1333 28 18.2933 28H9.70667C1.86667 28 0 26.1333 0 18.2933V9.70667C0 1.86667 1.86667 0 9.70667 0H18.2933Z" fill="#222222"/>
<path d="M7.29148 8.75H5.24981C4.66648 8.75 4.5498 9.02461 4.5498 9.32741C4.5498 9.86818 5.24198 12.5503 7.77267 16.0976C9.45978 18.5201 11.8368 19.8333 13.9998 19.8333C15.2976 19.8333 15.4581 19.5417 15.4581 19.0393V17.2083C15.4581 16.625 15.5811 16.5086 15.9921 16.5086C16.2949 16.5086 16.814 16.66 18.0253 17.828C19.4096 19.2123 19.6378 19.8333 20.4165 19.8333H22.4581C23.0415 19.8333 23.3331 19.5417 23.1649 18.9661C22.9808 18.3924 22.3198 17.5601 21.4428 16.5735C20.9669 16.0111 20.2532 15.4055 20.0369 15.1026C19.734 14.7133 19.8206 14.5402 20.0369 14.1942L20.0732 14.1427C20.3808 13.7054 22.5429 10.6051 22.7839 9.50049C22.9136 9.06788 22.7839 8.75 22.1665 8.75H20.1248C19.6057 8.75 19.3664 9.02461 19.2366 9.32741C19.2366 9.32741 18.1983 11.8581 16.7275 13.502C16.2516 13.9779 16.0353 14.1293 15.7757 14.1293C15.646 14.1293 15.4581 13.9779 15.4581 13.5453V9.50049C15.4581 8.98136 15.3075 8.75 14.8748 8.75H11.6665C11.3421 8.75 11.147 8.99094 11.147 9.21929C11.147 9.71141 11.8823 9.8249 11.9581 11.2092V14.2158C11.9581 14.875 11.8391 14.9945 11.5795 14.9945C10.8874 14.9945 9.20378 12.4525 8.20524 9.54373C8.00955 8.97837 7.81327 8.75 7.29148 8.75Z" fill="white"/>
</svg>
