<svg width="28" height="28" viewBox="0 0 28 28" fill="none" xmlns="http://www.w3.org/2000/svg">
<path fill-rule="evenodd" clip-rule="evenodd" d="M28 14C28 21.732 21.732 28 14 28C6.26801 28 0 21.732 0 14C0 6.26801 6.26801 0 14 0C21.732 0 28 6.26801 28 14ZM18.5161 21.9808V6.00196H14.4943C10.6041 6.00196 8.28283 7.93469 8.28283 11.1713C8.28283 13.7164 9.58501 15.1701 11.5408 16.5711L11.5737 16.5941L11.5507 16.6271L7.947 21.9956H10.8839L14.9125 15.9751L13.5328 15.045C11.796 13.8662 10.9695 12.9624 10.9695 11.0066C10.9695 9.1826 12.2931 8.09274 14.5091 8.09274H15.7586H15.7998V8.13389V21.9808H18.5161Z" fill="#222222"/>
</svg>
